<?xml version="1.0" encoding="utf-8"?>
<!-- Generator: Adobe Illustrator 20.0.0, SVG Export Plug-In . SVG Version: 6.00 Build 0)  -->
<svg version="1.1" id="Warstwa_1" xmlns="http://www.w3.org/2000/svg" xmlns:xlink="http://www.w3.org/1999/xlink" x="0px" y="0px"
	 viewBox="0 0 273.3 59.1" style="enable-background:new 0 0 273.3 59.1;" xml:space="preserve">
<style type="text/css">
	.st0{fill:#394898;}
	.st1{fill:#010202;}
</style>
<path class="st0" d="M12.9,22.2L12.9,22.2c0,1.9,1.5,3.4,3.4,3.4c1.9,0,3.4-1.6,3.4-3.4V14c0-1.9-1.5-3.4-3.4-3.4
	c-1.9,0-3.4,1.5-3.4,3.4V22.2z"/>
<path class="st0" d="M16.3,34.4c9,0,16.3-7.3,16.3-16.3c0-9-7.3-16.3-16.3-16.3C7.3,1.8,0,9.1,0,18.1C0,27.1,7.3,34.4,16.3,34.4
	 M16.3,7.2c6,0,10.9,4.9,10.9,10.9c0,6-4.9,10.9-10.9,10.9c-6,0-10.9-4.9-10.9-10.9C5.4,12.1,10.3,7.2,16.3,7.2"/>
<path class="st1" d="M141.2,19c0.2-1.2,0.8-2.3,1.8-3.1c1-0.8,2.1-1.3,3.4-1.3c0.6,0,1.2,0.1,1.7,0.3c0.5,0.2,0.9,0.5,1.3,0.9
	c0.3,0.4,0.6,0.9,0.7,1.4c0.1,0.5,0.1,1.1,0,1.7c-0.1,0.6-0.3,1.2-0.6,1.7c-0.3,0.5-0.7,1-1.2,1.4c-0.5,0.4-1,0.7-1.6,1
	c-0.6,0.2-1.2,0.3-1.8,0.3c-0.6,0-1.2-0.1-1.7-0.3c-0.5-0.2-0.9-0.6-1.2-1c-0.3-0.4-0.6-0.9-0.7-1.4C141.1,20.1,141.1,19.6,141.2,19
	"/>
<polygon class="st1" points="35.7,50.9 41.5,18.2 52.5,18.2 56.7,40.1 69,18.2 79.4,18.2 73.6,50.9 65.6,50.9 69.5,28.8 57.9,50.9
	51.7,50.9 47.7,28.8 43.8,50.9 "/>
<path class="st1" d="M79.8,40.9l2.6-14.6h7.8l-2.2,12.6c-0.3,1.8-0.3,3.2,0.2,4.3c0.4,1.1,1.4,1.7,3.1,1.7c1.6,0,2.9-0.6,3.9-1.7
	c1-1.1,1.6-2.6,2-4.5l2.2-12.3h7.8l-4.3,24.6h-7.8l0.6-3.5c-0.9,1.3-2.1,2.3-3.6,3c-1.5,0.7-3.2,1.1-5.2,1.1c-1.7,0-3.1-0.3-4.1-0.8
	c-1-0.5-1.8-1.2-2.3-2c-0.6-1-0.9-2-1-3.3C79.3,44.2,79.5,42.7,79.8,40.9"/>
<polygon class="st1" points="107.2,50.9 113,18.2 120.8,18.2 115,50.9 "/>
<path class="st1" d="M123.6,26.3l1.5-8.2h7.8l-1.5,8.2h5.6l-1,5.8h-5.6l-1.5,8.7c-0.2,0.9-0.2,1.6-0.1,2.2c0.1,0.5,0.2,1,0.5,1.3
	c0.3,0.3,0.6,0.5,1,0.6c0.4,0.1,0.9,0.1,1.5,0.1c0.3,0,0.8,0,1.3,0c0.5,0,1-0.1,1.4-0.1l-1.1,6c-0.6,0.1-1.3,0.2-2.2,0.3
	c-0.9,0.1-1.9,0.1-3.1,0.1c-0.9,0-1.9-0.1-2.9-0.2c-1-0.1-1.9-0.5-2.6-1c-0.8-0.6-1.3-1.4-1.7-2.6c-0.4-1.2-0.4-2.8,0-4.8l1.8-10.5
	L123.6,26.3z"/>
<polygon class="st1" points="136.3,50.9 140.6,26.3 148.4,26.3 144,50.9 "/>
<path class="st1" d="M175.6,59.1l5.8-32.8h7.8l-0.6,3.5c0.8-1.1,2-2.1,3.5-2.9c1.5-0.8,3.2-1.2,5.2-1.2c1.6,0,3.1,0.3,4.4,1
	c1.3,0.7,2.4,1.6,3.2,2.7c0.9,1.1,1.4,2.5,1.8,4.1c0.3,1.6,0.3,3.3,0,5.1c-0.3,1.8-0.9,3.6-1.8,5.1c-0.9,1.6-1.9,2.9-3.2,4.1
	c-1.2,1.1-2.7,2.1-4.2,2.7c-1.5,0.7-3.1,1-4.7,1c-1.9,0-3.5-0.4-4.7-1.2c-1.2-0.8-2.1-1.8-2.5-2.9l-2.1,11.7H175.6z M187,38.6
	c-0.2,0.9-0.2,1.7,0,2.4c0.2,0.8,0.4,1.4,0.9,2c0.4,0.6,0.9,1,1.6,1.3c0.7,0.3,1.4,0.5,2.3,0.5c0.9,0,1.7-0.2,2.5-0.5
	c0.8-0.3,1.5-0.8,2.1-1.3c0.6-0.5,1.1-1.2,1.5-2c0.4-0.8,0.7-1.6,0.9-2.4c0.2-0.8,0.1-1.6,0-2.4c-0.2-0.8-0.4-1.4-0.9-2
	c-0.4-0.6-0.9-1-1.6-1.3c-0.7-0.3-1.4-0.5-2.3-0.5c-0.9,0-1.7,0.2-2.5,0.5c-0.8,0.3-1.5,0.8-2.1,1.3c-0.6,0.6-1.1,1.2-1.6,2
	C187.4,37,187.1,37.8,187,38.6"/>
<path class="st1" d="M209.2,38.6c0.3-1.8,0.9-3.4,1.8-5c0.9-1.6,2-2.9,3.4-4.1c1.4-1.2,3-2.1,4.8-2.8c1.8-0.7,3.8-1.1,5.9-1.1
	c2.2,0,4,0.3,5.6,1.1c1.6,0.7,2.8,1.6,3.8,2.8c1,1.2,1.6,2.5,2,4.1c0.3,1.6,0.3,3.2,0,5c-0.3,1.8-0.9,3.4-1.8,5
	c-0.9,1.6-2,2.9-3.4,4.1c-1.4,1.2-3,2.1-4.8,2.8c-1.8,0.7-3.8,1-5.9,1c-2.1,0-4-0.4-5.5-1c-1.5-0.7-2.8-1.6-3.8-2.8
	c-1-1.2-1.6-2.5-2-4.1C208.9,42.1,208.9,40.4,209.2,38.6 M217,38.6c-0.2,0.9-0.2,1.7,0,2.5c0.1,0.8,0.4,1.4,0.8,2
	c0.4,0.6,0.9,1,1.6,1.4c0.7,0.3,1.4,0.5,2.3,0.5c0.9,0,1.7-0.2,2.5-0.5c0.8-0.3,1.5-0.8,2.1-1.4c0.6-0.6,1.1-1.2,1.6-2
	c0.4-0.7,0.7-1.6,0.9-2.5c0.2-0.8,0.2-1.7,0-2.4c-0.2-0.8-0.4-1.4-0.8-2c-0.4-0.6-0.9-1-1.6-1.4c-0.7-0.3-1.5-0.5-2.4-0.5
	c-0.9,0-1.7,0.2-2.5,0.5c-0.8,0.3-1.5,0.8-2.1,1.4c-0.6,0.6-1.1,1.2-1.5,2C217.4,36.9,217.1,37.8,217,38.6"/>
<path class="st1" d="M259.9,26.3l1.4-8.2h7.8l-1.4,8.2h5.6l-1,5.8h-5.6l-1.5,8.7c-0.2,0.9-0.2,1.6-0.1,2.2c0.1,0.5,0.2,1,0.5,1.3
	c0.3,0.3,0.6,0.5,1,0.6C267,45,267.4,45,268,45c0.3,0,0.8,0,1.3,0c0.5,0,1-0.1,1.4-0.1l-1.1,6c-0.6,0.1-1.3,0.2-2.2,0.3
	c-0.9,0.1-1.9,0.1-3.1,0.1c-0.9,0-1.9-0.1-2.9-0.2c-1-0.1-1.9-0.5-2.6-1c-0.8-0.6-1.3-1.4-1.7-2.6c-0.4-1.2-0.4-2.8,0-4.8l1.8-10.5
	L259.9,26.3z"/>
<path class="st1" d="M177.1,23.6c-0.3-1.3-0.8-2.4-1.7-3.4c-0.8-1-2-1.8-3.3-2.4c-1.4-0.6-3.1-0.9-5-0.9c-1.5,0-3.1,0.2-4.6,0.6
	c-1.5,0.4-2.9,1-4.1,1.8c-1.2,0.8-2.3,1.8-3.2,3.1c-0.9,1.2-1.5,2.7-1.8,4.4c-0.3,1.6-0.2,3.1,0.2,4.2c0.4,1.1,1.1,2.1,2,2.9
	c0.9,0.8,2,1.5,3.2,2c1.2,0.5,2.5,1.1,3.9,1.6c0.7,0.3,1.3,0.5,1.8,0.8c0.6,0.3,1,0.5,1.4,0.9c0.3,0.3,0.6,0.7,0.8,1.1
	c0.2,0.4,0.2,0.9,0.1,1.5c-0.2,1-0.7,1.8-1.5,2.5c-0.8,0.6-1.8,0.9-3,0.9c-1.4,0-2.4-0.4-3.2-1.3c-0.7-0.9-1-2.2-0.7-3.8h-8.3
	c-0.3,1.9-0.3,3.6,0.1,5.1c0.4,1.5,1.1,2.8,2,3.8c1,1,2.2,1.8,3.6,2.3c1.5,0.5,3.1,0.8,5,0.8c1.8,0,3.5-0.2,5.1-0.7
	c1.6-0.5,3.1-1.2,4.3-2.1c1.3-0.9,2.3-2.1,3.2-3.4c0.9-1.3,1.4-2.8,1.7-4.5c0.3-1.7,0.2-3.2-0.3-4.4c-0.5-1.2-1.2-2.2-2.2-3
	c-1-0.8-2.1-1.5-3.4-2.1c-1.3-0.5-2.6-1.1-3.9-1.6c-1.3-0.5-2.4-1.1-3-1.7c-0.6-0.6-0.8-1.3-0.7-2.2c0.2-0.9,0.6-1.6,1.4-2.1
	c0.8-0.5,1.7-0.8,2.6-0.8c1.2,0,2.1,0.4,2.5,1.1c0.5,0.7,0.6,1.8,0.4,3.1h8.4C177.3,26.2,177.3,24.9,177.1,23.6"/>
<path class="st1" d="M257,25.9c-1.8,0-3.5,0.4-5,1.3c-1.5,0.9-2.6,1.9-3.4,3.1l0.7-4h-7.8l-4.3,24.6h7.8l1.7-9.6
	c0.5-3,1.6-5.2,3.1-6.4c1.5-1.3,3.4-1.9,5.6-1.9c0.4,0,0.7,0,0.9,0.1l1.3-7.2C257.3,25.9,257.1,25.9,257,25.9"/>
</svg>
